<svg id="Layer_1" data-name="Layer 1" xmlns="http://www.w3.org/2000/svg" viewBox="0 0 3532.65 788.38"><defs><style>.cls-1{fill:#f6d735;}.cls-2{fill:#2633b4;}.cls-3{fill:none;}</style></defs><path class="cls-1" d="M-787.77,127l84.14,18.87c84.15,18.86,252,56.6,421.22,18.86C-114.85,127,53.68,13.77,220.5,1.15,389.77-11,559.05,76.26,725.87,120.72c168.53,44,336.09,44,505.36,31.37C1399,139.94,1567.32,114,1736.6,114.35c167.05-.35,336.09,25.59,502.91,25.24,169,.35,336.09-25.59,421.95-37.74l83.41-12.62V240.17H-787.77Z" transform="translate(787.77 0)"/><path class="cls-2" d="M-787.77,171.78l84.14,18.87c84.15,18.86,252,56.6,421.22,18.86C-114.85,171.78,53.68,58.58,220.5,46c169.27-12.15,338.55,75.11,505.37,119.57,168.53,44,336.09,44,505.36,31.37,167.8-12.15,336.09-38.09,505.37-37.74,167.05-.35,336.09,25.59,502.91,25.24,169,.35,336.09-25.59,421.95-37.74L2744.87,134V285H-787.77Z" transform="translate(787.77 0)"/><path class="cls-2" d="M-787.77,240.56H2744.87V784.17H-787.77Z" transform="translate(787.77 0)"/><rect class="cls-3" x="330.35" y="646.95" width="248" height="141.43"/></svg>