<svg id="Layer_1" data-name="Layer 1" xmlns="http://www.w3.org/2000/svg" viewBox="0 0 1883.68 103.3"><defs><style>.cls-1{fill:#393941;}.cls-2{fill:#4d4d4d;}</style></defs><path class="cls-1" d="M1910,436c-61.89-45.9-174.39,13.07-262,13-26.11,0-160.16-22.16-242-22.22-19.63,0-154.95,23.74-256,23.7-99.26,0-207.85-23.72-279.95-23.7-101.8,0-210.76,26.6-288,26.67-184.37.17-235.34-36.45-339-16.3C163.26,452.71,67,393,36,418c-5.17,4.17-5,21.73-5,34l-2-16c0-11.67-2.25-54.75,6-63,31.23-31.21,128,49,208,28,103.63-27.2,154.61,22.23,339,22,77.21-.1,186.19-36,288-36,72.12,0,180.72,32,280,32,101,.05,236.37-32,256-32,81.82.08,215.88,30,242,30,87.58.09,198.1-78,260-16C1916.52,409.53,1910.06,423.93,1910,436Z" transform="translate(-28.72 -365.7)"/><path class="cls-2" d="M1910,435.15V469H31.28v-7.92c0-3.05-.28-9-.28-15.69,0-12.27.94-27,6.28-31,31.23-23.12,128,36.3,208,20.74,103.61-20.15,154.58,16.47,339,16.3,77.2-.07,186.16-26.64,288-26.67,72.1,0,180.69,23.67,279.95,23.7,101,0,236.34-23.71,256-23.7,81.8.06,215.85,22.2,242,22.22C1737.61,447.07,1848.11,389.25,1910,435.15Z" transform="translate(-28.72 -365.7)"/></svg>