<svg id="Layer_1" data-name="Layer 1" xmlns="http://www.w3.org/2000/svg" viewBox="0 0 341.56 116.85"><defs><style>.cls-1{fill:#2633b4;}.cls-2{fill:#f6d735;}</style></defs><path class="cls-1" d="M650.86,129c5.91,3.49-10-10.78-37.54-18.62-27.5-8.86-66.56-11.28-106.8-7.31s-79.86,4.23-108-1.89c-28.1-5-44.68-16.49-38.93-11.16a147.53,147.53,0,0,0,50.22,22.19c23.28,5.62,53.89,7.21,94.13,3.8s72.47-3.78,96.87-.24C625.26,119,641.89,126.07,650.86,129Z" transform="translate(-324.51 -12.7)"/><path class="cls-2" d="M416.72,80.15c-4.43-2.25,7.41,7.77,27.83,13.29,20.41,6.22,49.37,8,79.3,5s59.34-3.43,80.27.48c20.94,3.17,33.3,10.79,29,7C616.92,94.51,585.81,81.63,526,87.59c-29.87,2.54-53.86,3.06-72,.89C435.85,86.56,423.47,82,416.72,80.15Z" transform="translate(-324.51 -12.7)"/><path class="cls-1" d="M343.23,63l-3.75,9.44h-15l20.88-54.29h15.4l20.45,54.29H366.19L362.67,63Zm9.86-28.08H353l-5.84,17.28h11.74Z" transform="translate(-324.51 -12.7)"/><path class="cls-1" d="M384.91,12.7H398V39.12a13.28,13.28,0,0,1,4.71-3.35,17.61,17.61,0,0,1,5.66-1.4h1.08a16.9,16.9,0,0,1,13.35,5.87A20.23,20.23,0,0,1,428,54a20.16,20.16,0,0,1-5.18,13.83,17.18,17.18,0,0,1-13.47,5.83h-.86a16,16,0,0,1-5.83-1.4,10.1,10.1,0,0,1-4.47-3.86l-.14-.07v4.11H384.91Zm14.91,35.53a8.47,8.47,0,0,0-2.23,5.87,8.27,8.27,0,0,0,2.23,5.9,9.28,9.28,0,0,0,12.42,0,8.44,8.44,0,0,0,2.19-5.93,8.62,8.62,0,0,0-2.19-5.89,7.85,7.85,0,0,0-6.23-2.5A8.1,8.1,0,0,0,399.82,48.23Z" transform="translate(-324.51 -12.7)"/><path class="cls-1" d="M454,34.3a25,25,0,0,1,15.59,5.22q6.66,5.15,6.66,14.58t-6.66,14.47a26.34,26.34,0,0,1-31.14,0q-6.69-5.07-6.7-14.5t6.66-14.58A24.72,24.72,0,0,1,454,34.37Zm-6.19,13.93a8.47,8.47,0,0,0-2.23,5.87,8.27,8.27,0,0,0,2.23,5.9,9.28,9.28,0,0,0,12.42,0,8.44,8.44,0,0,0,2.19-5.93,8.62,8.62,0,0,0-2.19-5.89,7.85,7.85,0,0,0-6.23-2.5A8.1,8.1,0,0,0,447.77,48.23Z" transform="translate(-324.51 -12.7)"/><path class="cls-1" d="M495,35.52V55.25a11.8,11.8,0,0,0,1.26,5.83q1.26,2.23,5.29,2.23t5.29-2.23a11.65,11.65,0,0,0,1.26-5.76V35.52h13.11V57.77q0,9.21-5.65,12.56t-14,3.35a27.16,27.16,0,0,1-14-3.35Q481.9,67,481.9,57.84V35.52Z" transform="translate(-324.51 -12.7)"/><path class="cls-1" d="M543.89,72.46H530.78V46.32h-4.24V35.52h4.24V24.43h13.11V35.52h7.41v10.8h-7.41Z" transform="translate(-324.51 -12.7)"/><path class="cls-1" d="M627.55,18.17V48.7A62.69,62.69,0,0,1,626.72,59a16.06,16.06,0,0,1-4.86,8.93,16.91,16.91,0,0,1-6.15,3.92,31.07,31.07,0,0,1-7.31,1.77c-.77.09-1.54.17-2.31.21s-1.51.08-2.23.08-1.46,0-2.23-.08-1.54-.12-2.3-.21A30.84,30.84,0,0,1,592,71.84a16.87,16.87,0,0,1-6.16-3.92A16.06,16.06,0,0,1,581,59a62.28,62.28,0,0,1-.83-10.22V18.17h14.12V48.48a25.19,25.19,0,0,0,1.69,9c1.08,2.74,3.71,4.1,7.88,4.1s6.81-1.36,7.89-4.1a25.41,25.41,0,0,0,1.69-9V18.17Z" transform="translate(-324.51 -12.7)"/><path class="cls-1" d="M665,36.67,660.6,45a18,18,0,0,0-1.91-.79,15.8,15.8,0,0,0-2.12-.57c-.53-.1-1.05-.18-1.55-.26a10.82,10.82,0,0,0-1.48-.1l-.75,0a3.13,3.13,0,0,0-.76.18,5.18,5.18,0,0,0-1.8.76,1.75,1.75,0,0,0-.79,1.55,2,2,0,0,0,1,1.83,8,8,0,0,0,2.34.9,11.74,11.74,0,0,0,1.37.33l1.15.18A17.69,17.69,0,0,1,663,52.44q3.06,2.45,3.06,7.56,0,7.05-5.19,10.26a22.79,22.79,0,0,1-11.44,3.42h-.79a28,28,0,0,1-7.74-1.08,29.8,29.8,0,0,1-7.17-3.1l4.75-9.21A16.22,16.22,0,0,0,641.3,62a32.42,32.42,0,0,0,3.24,1.33c.77.24,1.51.43,2.23.58a11,11,0,0,0,2.09.21l.61,0c.22,0,.45-.06.69-.11a4.67,4.67,0,0,0,1.94-.86,2.13,2.13,0,0,0,.86-1.8A2.32,2.32,0,0,0,651.45,59a16.83,16.83,0,0,0-3.6-1.12c-.53-.09-1-.2-1.55-.32s-1-.25-1.54-.4a15.3,15.3,0,0,1-5.65-2.77q-2.57-2-2.56-7,0-6.69,5-9.86a20.31,20.31,0,0,1,10.87-3.24h.43a35.81,35.81,0,0,1,6.23.54A25.19,25.19,0,0,1,665,36.74Z" transform="translate(-324.51 -12.7)"/></svg>