<svg id="Layer_1" data-name="Layer 1" xmlns="http://www.w3.org/2000/svg" viewBox="0 0 2527 968.43"><defs><style>.cls-1{fill:#2633b4;}</style></defs><path class="cls-1" d="M0,769.78H2527V914.57H0Z" transform="translate(0 -19)"/><path class="cls-1" d="M0,987.43l60.19-4.85c60.19-4.84,180.23-14.53,301.31-16.14,119.86-1.73,240.42,4.94,359.75,6.45,121.08,1.52,242.17-1.51,361.5-6.45,120.56-4.76,240.42-11.42,361.5-12.93,120-1.52,240.41,1.51,361.5,6.45,119.5,4.75,240.42,11.42,359.74,12.93,120.92,1.52,240.42-1.51,301.84-3.24l59.67-1.6V890.5H0Z" transform="translate(0 -19)"/><path class="cls-1" d="M0,215.83H2527V86.55H0Z" transform="translate(0 -19)"/><path class="cls-1" d="M0,19l60.19,4.33c60.19,4.32,180.23,13,301.31,14.41C481.36,39.28,601.92,33.33,721.25,32c121.08-1.35,242.17,1.35,361.5,5.76,120.56,4.25,240.42,10.2,361.5,11.55,120,1.35,240.41-1.35,361.5-5.76,119.5-4.25,240.42-10.2,359.74-11.55,120.92-1.35,240.42,1.35,301.84,2.9L2527,36.31v69.24H0Z" transform="translate(0 -19)"/><path class="cls-1" d="M0,93.91H2527V876.64H0Z" transform="translate(0 -19)"/></svg>