<svg id="Layer_1" data-name="Layer 1" xmlns="http://www.w3.org/2000/svg" viewBox="0 0 790.73 380.86"><defs><style>.cls-1{fill:#fff;}</style></defs><path class="cls-1" d="M705.87,290.6a26.34,26.34,0,0,0-7.18-5,18.56,18.56,0,0,0-7.71-1.66,13.66,13.66,0,0,0-10.14,3.88Q677,291.67,677,298.12t3.66,10.06a13.07,13.07,0,0,0,9.82,3.76,19.57,19.57,0,0,0,7.54-1.59,38.05,38.05,0,0,0,8.38-5.05l-.83,26.9a47.28,47.28,0,0,1-8.4,2.57,42,42,0,0,1-8.4.85,42.63,42.63,0,0,1-10.06-1.17,35.33,35.33,0,0,1-8.74-3.32,38.15,38.15,0,0,1-14.33-13.82,37.42,37.42,0,0,1-4.86-19.19,39.26,39.26,0,0,1,2.76-14.84,36,36,0,0,1,20.36-20,41.82,41.82,0,0,1,15.16-2.71,41,41,0,0,1,8.57.91,40.07,40.07,0,0,1,8.23,2.71Z" transform="translate(-592.17 -255.93)"/><path class="cls-1" d="M715.83,333.72V283.23h23.78v7.08a22.19,22.19,0,0,1,7.08-6.52,17.43,17.43,0,0,1,8.64-2.17l1.1,0a6,6,0,0,1,.66.08v24.51a21.29,21.29,0,0,0-3.76-1.66,10.45,10.45,0,0,0-3.13-.54q-4.68,0-7.25,2.54a9.58,9.58,0,0,0-2.56,7.13v20Z" transform="translate(-592.17 -255.93)"/><path class="cls-1" d="M821.4,312.48l-34.82,0v.78c0,2.57.47,4.48,1.39,5.73a4.91,4.91,0,0,0,4.23,1.88,4.66,4.66,0,0,0,3-1,6.61,6.61,0,0,0,2-2.9l22.7,1.51a23.91,23.91,0,0,1-10.25,12.65q-7.27,4.44-17.82,4.44a33,33,0,0,1-11-1.78,28.78,28.78,0,0,1-9.15-5.2,27.61,27.61,0,0,1-7-9.13,25.58,25.58,0,0,1,0-21.85,27,27,0,0,1,7-9.06,27.93,27.93,0,0,1,9.13-5.22,33.19,33.19,0,0,1,11-1.76,31.84,31.84,0,0,1,14.55,3.25,28.65,28.65,0,0,1,10.74,9.44,24.13,24.13,0,0,1,3.3,7,30.43,30.43,0,0,1,1.09,8.37c0,.79,0,1.37,0,1.76S821.43,312.18,821.4,312.48Zm-34.62-11,11.08.05a6.66,6.66,0,0,0-1.49-4.39,5.2,5.2,0,0,0-4-1.42,5,5,0,0,0-3.78,1.49A7.46,7.46,0,0,0,786.78,301.49Z" transform="translate(-592.17 -255.93)"/><path class="cls-1" d="M864,333.72V326.1a26.24,26.24,0,0,1-7.66,7.2,17.29,17.29,0,0,1-8.84,2.32q-8.79,0-14.57-7.47t-5.79-19.24q0-12.3,5.64-19.8a17.6,17.6,0,0,1,14.72-7.49,17.92,17.92,0,0,1,8.52,2,22.46,22.46,0,0,1,7.11,6.28v-6.69h23.48v50.49ZM850.6,308.33a7.58,7.58,0,0,0,1.73,5.2,6.32,6.32,0,0,0,9.15,0,7.63,7.63,0,0,0,1.71-5.22,7.89,7.89,0,0,0-1.73-5.33,5.77,5.77,0,0,0-4.57-2,5.71,5.71,0,0,0-4.56,2A7.85,7.85,0,0,0,850.6,308.33Z" transform="translate(-592.17 -255.93)"/><path class="cls-1" d="M900.2,333.72V301.83h-7v-18.6h7v-16.7h24.52v16.7h7v18.6h-7v31.89Z" transform="translate(-592.17 -255.93)"/><path class="cls-1" d="M964.71,267.51a11,11,0,0,1-3.57,8.61q-3.55,3.21-9.62,3.2t-9.71-3.22a10.94,10.94,0,0,1-3.62-8.59,10.63,10.63,0,0,1,3.57-8.47q3.56-3.1,9.76-3.11t9.67,3.11A10.69,10.69,0,0,1,964.71,267.51Zm-25.49,66.21V283.23h24.51v50.49Z" transform="translate(-592.17 -255.93)"/><path class="cls-1" d="M988.29,333.72l-21.68-50.49h26l5,17.48c.58,1.92,1,3.44,1.27,4.57a26.85,26.85,0,0,1,.54,3,43.85,43.85,0,0,1,1.46-6.35c.16-.55.28-.94.34-1.17l4.93-17.53h26.27l-21.87,50.49Z" transform="translate(-592.17 -255.93)"/><path class="cls-1" d="M1091.61,312.48l-34.81,0v.78q0,3.85,1.39,5.73a4.89,4.89,0,0,0,4.22,1.88,4.66,4.66,0,0,0,3-1,6.53,6.53,0,0,0,2-2.9l22.71,1.51a24,24,0,0,1-10.26,12.65q-7.27,4.44-17.82,4.44a33,33,0,0,1-11-1.78,28.94,28.94,0,0,1-9.16-5.2,27.88,27.88,0,0,1-7-9.13,25.54,25.54,0,0,1,0-21.85,27.15,27.15,0,0,1,7-9.06,28.07,28.07,0,0,1,9.14-5.22,33.09,33.09,0,0,1,11-1.76,31.81,31.81,0,0,1,14.55,3.25,28.49,28.49,0,0,1,10.74,9.44,23.63,23.63,0,0,1,3.3,7,30.43,30.43,0,0,1,1.1,8.37c0,.79,0,1.37,0,1.76S1091.64,312.18,1091.61,312.48Zm-34.62-11,11.09.05a6.71,6.71,0,0,0-1.49-4.39,5.22,5.22,0,0,0-4-1.42,5,5,0,0,0-3.79,1.49A7.46,7.46,0,0,0,1057,301.49Z" transform="translate(-592.17 -255.93)"/><path class="cls-1" d="M894.27,394.1v23.09h22.41v13.33H894.27v23.2H880.6v-23.2H858.19V417.19H880.6V394.1Z" transform="translate(-592.17 -255.93)"/><path class="cls-1" d="M606.48,573.72v-48.1H592.17V502.23h54.3v23.39H632.16v48.1Z" transform="translate(-592.17 -255.93)"/><path class="cls-1" d="M703.79,552.48l-34.81,0v.78q0,3.86,1.39,5.73a4.9,4.9,0,0,0,4.22,1.88,4.64,4.64,0,0,0,3-1,6.45,6.45,0,0,0,2-2.9l22.71,1.51A24,24,0,0,1,692,571.18q-7.28,4.44-17.83,4.44a33,33,0,0,1-11-1.78,28.78,28.78,0,0,1-9.15-5.2,27.77,27.77,0,0,1-7-9.13,25.54,25.54,0,0,1,0-21.85,27,27,0,0,1,7-9.06,27.93,27.93,0,0,1,9.13-5.22,33.09,33.09,0,0,1,11-1.76,31.78,31.78,0,0,1,14.55,3.25,28.6,28.6,0,0,1,10.75,9.44,23.85,23.85,0,0,1,3.29,7,30.43,30.43,0,0,1,1.1,8.37c0,.79,0,1.37,0,1.76S703.83,552.18,703.79,552.48Zm-34.62-11,11.09,0a6.71,6.71,0,0,0-1.49-4.39,5.22,5.22,0,0,0-4-1.42,5,5,0,0,0-3.78,1.49A7.4,7.4,0,0,0,669.17,541.49Z" transform="translate(-592.17 -255.93)"/><path class="cls-1" d="M749.69,544.81a14.59,14.59,0,0,0-4-2.56,11.08,11.08,0,0,0-4.3-.86,8.51,8.51,0,0,0-5.91,2,6.74,6.74,0,0,0-2.19,5.25,6.62,6.62,0,0,0,2.14,5.1,7.91,7.91,0,0,0,5.57,2,10.78,10.78,0,0,0,4.32-1,18.07,18.07,0,0,0,4.37-2.81V572a36.9,36.9,0,0,1-7.35,2.73,28.6,28.6,0,0,1-7,.88A28.08,28.08,0,0,1,725,573.74a24.9,24.9,0,0,1-8.49-5.54,26.94,26.94,0,0,1-8-19.38,28,28,0,0,1,1-7.5,27.12,27.12,0,0,1,3-6.91,25.91,25.91,0,0,1,22.91-12.79,36.19,36.19,0,0,1,6.76.68,53.83,53.83,0,0,1,7.54,2.1Z" transform="translate(-592.17 -255.93)"/><path class="cls-1" d="M757.9,573.72V498h24.16v20.9q0,4.3-.09,6.69t-.3,4.59a22,22,0,0,1,7-6.47,17.75,17.75,0,0,1,8.69-2.12q8.05,0,12.77,4.88t4.71,13.33v33.89H790.27V548.23c0-2.54-.25-4.27-.76-5.2a2.76,2.76,0,0,0-2.66-1.39,3.7,3.7,0,0,0-3.27,1.66,8.81,8.81,0,0,0-1.12,4.93v25.49Z" transform="translate(-592.17 -255.93)"/><path class="cls-1" d="M825.08,573.72V523.23h23.78v7a22,22,0,0,1,7-6.47,17.78,17.78,0,0,1,8.69-2.12q8.07,0,12.77,4.88t4.71,13.33v33.89H857.55V548.23c0-2.51-.26-4.23-.78-5.18a2.85,2.85,0,0,0-2.73-1.41,3.67,3.67,0,0,0-3.27,1.66,8.81,8.81,0,0,0-1.13,4.93v25.49Z" transform="translate(-592.17 -255.93)"/><path class="cls-1" d="M949,548.62a25.18,25.18,0,0,1-2.44,10.89,27.81,27.81,0,0,1-16,14.33,35.07,35.07,0,0,1-22,0,28,28,0,0,1-9.13-5.22,26.59,26.59,0,0,1-7-9.06,25.64,25.64,0,0,1,0-21.92,27.18,27.18,0,0,1,7-9.06,28,28,0,0,1,9.13-5.22,35.07,35.07,0,0,1,22,0,28.78,28.78,0,0,1,9.15,5.2,26.6,26.6,0,0,1,6.89,9A25.65,25.65,0,0,1,949,548.62Zm-29.49,6.88a5.4,5.4,0,0,0,4.29-1.9,8.39,8.39,0,0,0,0-10,6,6,0,0,0-8.69,0,8.44,8.44,0,0,0,0,10A5.47,5.47,0,0,0,919.47,555.5Z" transform="translate(-592.17 -255.93)"/><path class="cls-1" d="M957.75,573.72V498h24.51v75.69Z" transform="translate(-592.17 -255.93)"/><path class="cls-1" d="M1050,548.62a25.18,25.18,0,0,1-2.44,10.89,27.81,27.81,0,0,1-16,14.33,35.07,35.07,0,0,1-22,0,28.13,28.13,0,0,1-9.13-5.22,26.56,26.56,0,0,1-6.95-9.06,25.55,25.55,0,0,1,0-21.92,27.15,27.15,0,0,1,6.95-9.06,28.13,28.13,0,0,1,9.13-5.22,35.07,35.07,0,0,1,22,0,28.83,28.83,0,0,1,9.16,5.2,26.7,26.7,0,0,1,6.88,9A25.65,25.65,0,0,1,1050,548.62Zm-29.49,6.88a5.44,5.44,0,0,0,4.3-1.9,8.37,8.37,0,0,0,0-10,5.42,5.42,0,0,0-4.32-1.88,5.48,5.48,0,0,0-4.37,1.88,8.48,8.48,0,0,0,0,10A5.48,5.48,0,0,0,1020.54,555.5Z" transform="translate(-592.17 -255.93)"/><path class="cls-1" d="M1092.32,569.13v-4.4a23.38,23.38,0,0,1-7.23,5.57,19.42,19.42,0,0,1-8.4,1.81,18.49,18.49,0,0,1-14.6-6.67q-5.76-6.66-5.76-17.11,0-12.12,5.59-19.41a17.7,17.7,0,0,1,14.77-7.3,18.37,18.37,0,0,1,8.57,2,21.53,21.53,0,0,1,7.06,6.12v-6.49h23.48v43.16a62.45,62.45,0,0,1-.58,10,23,23,0,0,1-1.91,6q-3.16,6.54-11,9.89t-20.15,3.34a64.53,64.53,0,0,1-12.72-1.19,46.07,46.07,0,0,1-10.76-3.54l5.27-16.31a37.21,37.21,0,0,0,8.23,3.93,26,26,0,0,0,8,1.29q6,0,9.08-2.73T1092.32,569.13ZM1080.6,547.3a6.43,6.43,0,0,0,1.66,4.66,5.86,5.86,0,0,0,4.44,1.74,6,6,0,0,0,4.52-1.74,6.4,6.4,0,0,0,1.68-4.66,6.59,6.59,0,0,0-1.7-4.69,5.92,5.92,0,0,0-4.5-1.8,5.77,5.77,0,0,0-4.41,1.78A6.55,6.55,0,0,0,1080.6,547.3Z" transform="translate(-592.17 -255.93)"/><path class="cls-1" d="M1140.85,569.32l-21.92-46.09h26.9l3.81,12.89c0,.13.08.29.15.49a89,89,0,0,1,3.12,13.72q1.42-5.91,2.28-9.4t1.34-5.1l3.71-12.6h25.19l-30.81,71.09h-26.07Z" transform="translate(-592.17 -255.93)"/><text x="-592.17" y="-255.93"/></svg>