<svg id="Layer_1" data-name="Layer 1" xmlns="http://www.w3.org/2000/svg" viewBox="0 0 964.18 435.5"><path d="M238.13,433.78C232.94,361.24,265,294.89,317.52,254.5c-25.87,67.42-16.12,147.06,32.11,207.05,68.27,84.89,188.54,99.25,273,34.33-27.29,70.83-92,123-170.89,128.62C341.89,632.37,246.24,547,238.13,433.78Z" transform="translate(-230.86 -189.5)" fill="#d9e021"/><path d="M478.47,537.33c15.61,5.52,32.5,10.72,50.45,16-48.58,13.25-102,41.44-149.13,45.18h-.13c-14.56,1.15-28.51,0-41.52-4.73a78.78,78.78,0,0,1-13.33-6.28c-1.45-.86-2.88-1.77-4.31-2.73s-2.82-2-4.21-3.07l-.06,0c-1.26-1-2.5-2-3.74-3.09h0a97.49,97.49,0,0,1-9.11-9.17c-79.09-90.84-69.62-228.64,21.16-307.79,57.48-50.13,133.64-34.72,202-14.9l.82.23,1.63.48c-74.29,20.36-135.35,48.86-154.5,129.13C351.71,471.71,397.74,508.78,478.47,537.33Z" transform="translate(-230.86 -189.5)" fill="#393941"/><path d="M605.7,405.4c0,38.91-34.84,70.44-77.83,70.44a83.44,83.44,0,0,1-41.17-10.65c-1.23-.7-2.44-1.42-3.62-2.18-20-12.73-33.05-33.79-33.05-57.61,0-38.9,34.85-70.44,77.84-70.44,1.28,0,2.56,0,3.83.08,24,1,45.07,11.91,58.55,28.23A65.83,65.83,0,0,1,605.7,405.4Z" transform="translate(-230.86 -189.5)" fill="#393941"/><path d="M605.7,405.4c0,38.91-34.84,70.44-77.83,70.44a83.44,83.44,0,0,1-41.17-10.65,75.81,75.81,0,0,1-21.23-17.67c1.18.76,2.39,1.48,3.62,2.17a83.44,83.44,0,0,0,41.17,10.65c43,0,77.83-31.53,77.83-70.44a65.83,65.83,0,0,0-15.45-42.13C592.64,360.52,605.7,381.58,605.7,405.4Z" transform="translate(-230.86 -189.5)" fill="#4d4d4d"/><path d="M600.92,251.24c-6-1.34-12-2.42-18-3.24a218.66,218.66,0,0,0-54.34-.62c-68.32-19.81-144.48-35.2-202,14.89-90.77,79.09-100.25,216.81-21.15,307.58a96.3,96.3,0,0,0,9.11,9.17,217.07,217.07,0,0,1-68-90.31c-.72-1.79-1.41-3.59-2.09-5.41s-1.27-3.51-1.88-5.29-1.15-3.45-1.69-5.2c-1.63-5.22-3.09-10.55-4.34-16-27.22-117.29,45.82-234.43,163.1-261.64A217.82,217.82,0,0,1,600.92,251.24Z" transform="translate(-230.86 -189.5)" fill="#0043b8"/><path d="M710.46,409.76V338.28h25.2l22.22,37.4a45,45,0,0,1-.61-5.52q-.18-3-.18-7.91v-24h24.76v71.48H756.46l-22-37.11c.26,1.6.45,3.32.58,5.16s.2,3.89.2,6.17v25.78Z" transform="translate(-230.86 -189.5)" fill="#fff"/><path d="M794.2,377.05V338.28h25.69v39c0,4.53.53,7.65,1.61,9.35s2.91,2.57,5.52,2.57,4.41-.88,5.51-2.64,1.66-4.85,1.66-9.28v-39h25.69v38.77a65.49,65.49,0,0,1-1,12.55,23.28,23.28,0,0,1-3.2,8.25A28,28,0,0,1,844,408.1a42.12,42.12,0,0,1-33.94,0,28,28,0,0,1-11.71-10.25,22.77,22.77,0,0,1-3.13-8.16A66.6,66.6,0,0,1,794.2,377.05Z" transform="translate(-230.86 -189.5)" fill="#fff"/><path d="M949.18,373.58a61.3,61.3,0,0,1-1.61,10.11q-.24,1.08-.39,1.71l-5.37,24.36H919.4l-20.9-71.48h25.78l5.62,31.49q.74,4.16,1.12,7.6t.49,6.47h.58a66.42,66.42,0,0,1,1.52-11.19c.06-.42.13-.76.19-1l6.79-33.35h18.12l6.78,33.4c0,.19.1.52.2,1a67.14,67.14,0,0,1,1.51,11.19h.59c.06-2,.23-4.18.49-6.47s.63-4.83,1.12-7.6L975,338.28h25.79l-20.9,71.48H957.49l-5.38-24.36c-.09-.42-.22-1-.39-1.76a62.45,62.45,0,0,1-1.61-10.06Z" transform="translate(-230.86 -189.5)" fill="#fff"/><path d="M994,409.76l25.49-71.48h28.61l25,71.48h-27.64l-2.29-9h-19.38l-2.2,9Zm34.08-26h10.7l-2.2-8.11q-1.62-6.15-2.2-9.47a51.17,51.17,0,0,1-.73-6.25h-.44a51.17,51.17,0,0,1-.73,6.25c-.39,2.21-1.13,5.37-2.2,9.47Z" transform="translate(-230.86 -189.5)" fill="#fff"/><path d="M1092.35,409.76l-27.3-71.48h27.84l7.56,25.88q1.66,5.65,2.47,9.57a55.1,55.1,0,0,1,1,7.32h.49c.32-2.41.79-4.95,1.39-7.61s1.37-5.57,2.32-8.7l8-26.46h27.29l-27.2,71.48Z" transform="translate(-230.86 -189.5)" fill="#fff"/><path d="M1146.65,409.76V338.28h47.8v19.38h-22.61v6.89h20.51v18.31h-20.51v7.52H1195v19.38Z" transform="translate(-230.86 -189.5)" fill="#fff"/><path d="M1194,412.69c4.3,5.58-5.35-.95-19.42.15-14.07,0-32.55,7.6-45.93,15.78-11.53,6.53-23.5,12-35.18,13.72-13.53,2.61-32.23,2.33-46.51-5.24-14.27-6.42-24.13-20.13-20-18a55.51,55.51,0,0,0,26.92,1.59c11.49-1.88,24.29-8.27,34.73-14.42,13.91-8.18,28.57-15.11,42.68-16.23,10.2-.77,22.64-.69,34.15,3.56C1177,397.48,1187.55,405.54,1194,412.69Z" transform="translate(-230.86 -189.5)" fill="#00b2f4"/><path d="M984.77,321.84c4.46,5.33-4.56.13-17.89,2.82-13.34,1.62-31,11.15-43.77,21.07-11,7.95-22.81,15.24-34.67,19.13-13.74,5-32.75,8.36-47.36,2.81-14.61-4.28-24.82-17.43-21-15.93A52.25,52.25,0,0,0,845.43,350c10.87-3.19,23-10.95,32.93-18.36,13.2-9.8,27.65-19,42.08-22.79,10.42-2.64,23.15-5,34.95-2.54C967.19,308.37,978.06,315.15,984.77,321.84Z" transform="translate(-230.86 -189.5)" fill="#00b2f4"/></svg>