<svg id="Layer_1" data-name="Layer 1" xmlns="http://www.w3.org/2000/svg" viewBox="0 0 556.23 618.25"><defs><style>.cls-1{fill:#d9e021;}.cls-2{fill:#393941;}.cls-3{fill:#4d4d4d;}.cls-4{fill:#0043b8;}</style></defs><path class="cls-1" d="M374.19,493.29c-7.38-103,38.07-197.18,112.7-254.51C450.16,334.49,464,447.55,532.47,532.71c96.91,120.51,267.66,140.9,387.61,48.74C881.35,682,789.42,756,677.48,764,521.49,775.21,385.7,654,374.19,493.29Z" transform="translate(-363.86 -146.5)"/><path class="cls-2" d="M715.38,640.29c22.15,7.84,46.14,15.22,71.62,22.67-69,18.81-144.82,58.83-211.71,64.14a.62.62,0,0,1-.19,0c-20.67,1.63-40.47-.06-58.94-6.72a111.86,111.86,0,0,1-18.93-8.91c-2.06-1.22-4.09-2.51-6.11-3.88s-4-2.83-6-4.36l-.09-.07c-1.78-1.4-3.55-2.85-5.3-4.38l0,0a136,136,0,0,1-12.93-13c-112.29-129-98.84-324.58,30-436.95,81.6-71.16,189.72-49.28,286.7-21.15l1.16.33,2.32.68C681.53,257.57,594.85,298,567.66,412,535.42,547.13,600.77,599.75,715.38,640.29Z" transform="translate(-363.86 -146.5)"/><path class="cls-2" d="M896,453c0,55.23-49.47,100-110.5,100a118.52,118.52,0,0,1-58.44-15.12c-1.75-1-3.46-2-5.14-3.09C693.54,516.71,675,486.81,675,453c0-55.23,49.47-100,110.5-100,1.82,0,3.64,0,5.44.12,34,1.49,64,16.9,83.12,40.07C887.84,409.87,896,430.57,896,453Z" transform="translate(-363.86 -146.5)"/><path class="cls-3" d="M896,453c0,55.23-49.47,100-110.5,100a118.52,118.52,0,0,1-58.44-15.12,107.47,107.47,0,0,1-30.14-25.09c1.68,1.08,3.39,2.1,5.14,3.09A118.52,118.52,0,0,0,760.5,531c61,0,110.5-44.77,110.5-100,0-22.43-8.16-43.13-21.94-59.81C877.45,389.28,896,419.18,896,453Z" transform="translate(-363.86 -146.5)"/><path class="cls-4" d="M889.21,234.15c-8.48-1.9-17-3.44-25.62-4.6a310.71,310.71,0,0,0-77.14-.89c-97-28.11-205.1-50-286.7,21.14-128.87,112.29-142.32,307.79-30,436.66a137.07,137.07,0,0,0,12.93,13,308.18,308.18,0,0,1-96.52-128.2c-1-2.54-2-5.1-3-7.68s-1.81-5-2.67-7.51-1.63-4.9-2.41-7.38c-2.31-7.42-4.38-15-6.16-22.69C333.3,359.5,437,193.2,603.48,154.57,709.91,129.88,816.25,163.33,889.21,234.15Z" transform="translate(-363.86 -146.5)"/></svg>