<svg id="Layer_1" data-name="Layer 1" xmlns="http://www.w3.org/2000/svg" viewBox="0 0 871.65 663.87"><defs><style>.cls-1{fill:#fff;}.cls-2{fill:none;stroke:#000;stroke-miterlimit:10;stroke-width:4px;}</style></defs><path class="cls-1" d="M713.69,759c-1.21-4-5.77-8.78-11.49-14.39a59.23,59.23,0,0,1-4.6-4.81c-2.91-3.88-3.45-7.42-4.19-12.32-.13-.9-.27-1.83-.44-2.81-.41-2.49-.57-5.12-.73-7.65a58.75,58.75,0,0,0-1.3-10.51c-.35-1.4-.82-2.8-1.26-4.14a35.45,35.45,0,0,1-1.5-5.37H1216V245h46V759Z" transform="translate(-686 -97.13)"/><path d="M1260,247V757H715.06c-1.84-4.13-6.18-8.63-11.45-13.82a57.94,57.94,0,0,1-4.41-4.58c-2.61-3.48-3.09-6.64-3.81-11.42-.14-.91-.28-1.85-.44-2.84-.4-2.39-.55-4.85-.72-7.45A59.06,59.06,0,0,0,692.88,706c-.37-1.48-.85-2.91-1.31-4.29-.31-.94-.61-1.85-.87-2.74H1218V247h42m4-4h-50V695H686c0,4,2,8,3,12,1.44,5.76,1,12,2,18,1,6.31,1.21,10.94,5,16,3,4,16,14.33,16,20h552V243Z" transform="translate(-686 -97.13)"/><rect class="cls-1" x="2" y="117.87" width="524" height="484"/><path d="M1210,217V697H690V217h520m4-4H686V701h528V213Z" transform="translate(-686 -97.13)"/><rect class="cls-1" x="257" y="203.87" width="235" height="185"/><path d="M1176,303V484H945V303h231m4-4H941V488h239V299Z" transform="translate(-686 -97.13)"/><rect class="cls-1" x="31" y="406.87" width="222" height="150"/><path d="M937,506V652H719V506H937m4-4H715V656H941V502Z" transform="translate(-686 -97.13)"/><path class="cls-2" d="M916,553.5" transform="translate(-686 -97.13)"/><path class="cls-2" d="M981,509c6.31,0,6.31,4,12.62,4s6.31-4,12.62-4,6.31,4,12.62,4,6.32-4,12.63-4,6.31,4,12.62,4,6.31-4,12.62-4,6.32,4,12.63,4,6.31-4,12.62-4,6.32,4,12.63,4,6.31-4,12.62-4,6.31,4,12.62,4,6.32-4,12.63-4,6.31,4,12.63,4,6.31-4,12.62-4,6.32,4,12.64,4,6.31-4,12.63-4" transform="translate(-686 -97.13)"/><path class="cls-2" d="M981,518c6.31,0,6.31,4,12.62,4s6.31-4,12.62-4,6.31,4,12.62,4,6.32-4,12.63-4,6.31,4,12.62,4,6.31-4,12.62-4,6.32,4,12.63,4,6.31-4,12.62-4,6.32,4,12.63,4,6.31-4,12.62-4,6.31,4,12.62,4,6.32-4,12.63-4,6.31,4,12.63,4,6.31-4,12.62-4,6.32,4,12.64,4,6.31-4,12.63-4" transform="translate(-686 -97.13)"/><path class="cls-2" d="M981,527c6.31,0,6.31,4,12.62,4s6.31-4,12.62-4,6.31,4,12.62,4,6.32-4,12.63-4,6.31,4,12.62,4,6.31-4,12.62-4,6.32,4,12.63,4,6.31-4,12.62-4,6.32,4,12.63,4,6.31-4,12.62-4,6.31,4,12.62,4,6.32-4,12.63-4,6.31,4,12.63,4,6.31-4,12.62-4,6.32,4,12.64,4,6.31-4,12.63-4" transform="translate(-686 -97.13)"/><path class="cls-2" d="M981,536c6.31,0,6.31,4,12.62,4s6.31-4,12.62-4,6.31,4,12.62,4,6.32-4,12.63-4,6.31,4,12.62,4,6.31-4,12.62-4,6.32,4,12.63,4,6.31-4,12.62-4,6.32,4,12.63,4,6.31-4,12.62-4,6.31,4,12.62,4,6.32-4,12.63-4,6.31,4,12.63,4,6.31-4,12.62-4,6.32,4,12.64,4,6.31-4,12.63-4" transform="translate(-686 -97.13)"/><path class="cls-2" d="M981,545c6.31,0,6.31,4,12.62,4s6.31-4,12.62-4,6.31,4,12.62,4,6.32-4,12.63-4,6.31,4,12.62,4,6.31-4,12.62-4,6.32,4,12.63,4,6.31-4,12.62-4,6.32,4,12.63,4,6.31-4,12.62-4,6.31,4,12.62,4,6.32-4,12.63-4,6.31,4,12.63,4,6.31-4,12.62-4,6.32,4,12.64,4,6.31-4,12.63-4" transform="translate(-686 -97.13)"/><path class="cls-2" d="M981,554c6.31,0,6.31,4,12.62,4s6.31-4,12.62-4,6.31,4,12.62,4,6.32-4,12.63-4,6.31,4,12.62,4,6.31-4,12.62-4,6.32,4,12.63,4,6.31-4,12.62-4,6.32,4,12.63,4,6.31-4,12.62-4,6.31,4,12.62,4,6.32-4,12.63-4,6.31,4,12.63,4,6.31-4,12.62-4,6.32,4,12.64,4,6.31-4,12.63-4" transform="translate(-686 -97.13)"/><path class="cls-2" d="M981,563c6.31,0,6.31,4,12.62,4s6.31-4,12.62-4,6.31,4,12.62,4,6.32-4,12.63-4,6.31,4,12.62,4,6.31-4,12.62-4,6.32,4,12.63,4,6.31-4,12.62-4,6.32,4,12.63,4,6.31-4,12.62-4,6.31,4,12.62,4,6.32-4,12.63-4,6.31,4,12.63,4,6.31-4,12.62-4,6.32,4,12.64,4,6.31-4,12.63-4" transform="translate(-686 -97.13)"/><path class="cls-2" d="M981,572c6.31,0,6.31,4,12.62,4s6.31-4,12.62-4,6.31,4,12.62,4,6.32-4,12.63-4,6.31,4,12.62,4,6.31-4,12.62-4,6.32,4,12.63,4,6.31-4,12.62-4,6.32,4,12.63,4,6.31-4,12.62-4,6.31,4,12.62,4,6.32-4,12.63-4,6.31,4,12.63,4,6.31-4,12.62-4,6.32,4,12.64,4,6.31-4,12.63-4" transform="translate(-686 -97.13)"/><path class="cls-2" d="M981,581c6.31,0,6.31,4,12.62,4s6.31-4,12.62-4,6.31,4,12.62,4,6.32-4,12.63-4,6.31,4,12.62,4,6.31-4,12.62-4,6.32,4,12.63,4,6.31-4,12.62-4,6.32,4,12.63,4,6.31-4,12.62-4,6.31,4,12.62,4,6.32-4,12.63-4,6.31,4,12.63,4,6.31-4,12.62-4,6.32,4,12.64,4,6.31-4,12.63-4" transform="translate(-686 -97.13)"/><path class="cls-2" d="M981,590c6.31,0,6.31,4,12.62,4s6.31-4,12.62-4,6.31,4,12.62,4,6.32-4,12.63-4,6.31,4,12.62,4,6.31-4,12.62-4,6.32,4,12.63,4,6.31-4,12.62-4,6.32,4,12.63,4,6.31-4,12.62-4,6.31,4,12.62,4,6.32-4,12.63-4,6.31,4,12.63,4,6.31-4,12.62-4,6.32,4,12.64,4,6.31-4,12.63-4" transform="translate(-686 -97.13)"/><path class="cls-2" d="M981,599c6.31,0,6.31,4,12.62,4s6.31-4,12.62-4,6.31,4,12.62,4,6.32-4,12.63-4,6.31,4,12.62,4,6.31-4,12.62-4,6.32,4,12.63,4,6.31-4,12.62-4,6.32,4,12.63,4,6.31-4,12.62-4,6.31,4,12.62,4,6.32-4,12.63-4,6.31,4,12.63,4,6.31-4,12.62-4,6.32,4,12.64,4,6.31-4,12.63-4" transform="translate(-686 -97.13)"/><path class="cls-2" d="M981,608c6.31,0,6.31,4,12.62,4s6.31-4,12.62-4,6.31,4,12.62,4,6.32-4,12.63-4,6.31,4,12.62,4,6.31-4,12.62-4,6.32,4,12.63,4,6.31-4,12.62-4,6.32,4,12.63,4,6.31-4,12.62-4,6.31,4,12.62,4,6.32-4,12.63-4,6.31,4,12.63,4,6.31-4,12.62-4,6.32,4,12.64,4,6.31-4,12.63-4" transform="translate(-686 -97.13)"/><path class="cls-2" d="M981,617c6.31,0,6.31,4,12.62,4s6.31-4,12.62-4,6.31,4,12.62,4,6.32-4,12.63-4,6.31,4,12.62,4,6.31-4,12.62-4,6.32,4,12.63,4,6.31-4,12.62-4,6.32,4,12.63,4,6.31-4,12.62-4,6.31,4,12.62,4,6.32-4,12.63-4,6.31,4,12.63,4,6.31-4,12.62-4,6.32,4,12.64,4,6.31-4,12.63-4" transform="translate(-686 -97.13)"/><path class="cls-2" d="M981,626c6.31,0,6.31,4,12.62,4s6.31-4,12.62-4,6.31,4,12.62,4,6.32-4,12.63-4,6.31,4,12.62,4,6.31-4,12.62-4,6.32,4,12.63,4,6.31-4,12.62-4,6.32,4,12.63,4,6.31-4,12.62-4,6.31,4,12.62,4,6.32-4,12.63-4,6.31,4,12.63,4,6.31-4,12.62-4,6.32,4,12.64,4,6.31-4,12.63-4" transform="translate(-686 -97.13)"/><path class="cls-2" d="M981,635c6.31,0,6.31,4,12.62,4s6.31-4,12.62-4,6.31,4,12.62,4,6.32-4,12.63-4,6.31,4,12.62,4,6.31-4,12.62-4,6.32,4,12.63,4,6.31-4,12.62-4,6.32,4,12.63,4,6.31-4,12.62-4,6.31,4,12.62,4,6.32-4,12.63-4,6.31,4,12.63,4,6.31-4,12.62-4,6.32,4,12.64,4,6.31-4,12.63-4" transform="translate(-686 -97.13)"/><path class="cls-2" d="M981,644c6.31,0,6.31,4,12.62,4s6.31-4,12.62-4,6.31,4,12.62,4,6.32-4,12.63-4,6.31,4,12.62,4,6.31-4,12.62-4,6.32,4,12.63,4,6.31-4,12.62-4,6.32,4,12.63,4,6.31-4,12.62-4,6.31,4,12.62,4,6.32-4,12.63-4,6.31,4,12.63,4,6.31-4,12.62-4,6.32,4,12.64,4,6.31-4,12.63-4" transform="translate(-686 -97.13)"/><path class="cls-2" d="M722,338c6.31,0,6.31,4,12.62,4s6.31-4,12.62-4,6.31,4,12.62,4,6.32-4,12.63-4,6.31,4,12.62,4,6.31-4,12.62-4,6.32,4,12.63,4,6.31-4,12.62-4,6.32,4,12.63,4,6.31-4,12.62-4,6.31,4,12.62,4,6.32-4,12.63-4,6.31,4,12.63,4,6.31-4,12.62-4,6.32,4,12.64,4,6.31-4,12.63-4" transform="translate(-686 -97.13)"/><path class="cls-2" d="M722,347c6.31,0,6.31,4,12.62,4s6.31-4,12.62-4,6.31,4,12.62,4,6.32-4,12.63-4,6.31,4,12.62,4,6.31-4,12.62-4,6.32,4,12.63,4,6.31-4,12.62-4,6.32,4,12.63,4,6.31-4,12.62-4,6.31,4,12.62,4,6.32-4,12.63-4,6.31,4,12.63,4,6.31-4,12.62-4,6.32,4,12.64,4,6.31-4,12.63-4" transform="translate(-686 -97.13)"/><path class="cls-2" d="M722,356c6.31,0,6.31,4,12.62,4s6.31-4,12.62-4,6.31,4,12.62,4,6.32-4,12.63-4,6.31,4,12.62,4,6.31-4,12.62-4,6.32,4,12.63,4,6.31-4,12.62-4,6.32,4,12.63,4,6.31-4,12.62-4,6.31,4,12.62,4,6.32-4,12.63-4,6.31,4,12.63,4,6.31-4,12.62-4,6.32,4,12.64,4,6.31-4,12.63-4" transform="translate(-686 -97.13)"/><path class="cls-2" d="M722,365c6.31,0,6.31,4,12.62,4s6.31-4,12.62-4,6.31,4,12.62,4,6.32-4,12.63-4,6.31,4,12.62,4,6.31-4,12.62-4,6.32,4,12.63,4,6.31-4,12.62-4,6.32,4,12.63,4,6.31-4,12.62-4,6.31,4,12.62,4,6.32-4,12.63-4,6.31,4,12.63,4,6.31-4,12.62-4,6.32,4,12.64,4,6.31-4,12.63-4" transform="translate(-686 -97.13)"/><path class="cls-2" d="M722,374c6.31,0,6.31,4,12.62,4s6.31-4,12.62-4,6.31,4,12.62,4,6.32-4,12.63-4,6.31,4,12.62,4,6.31-4,12.62-4,6.32,4,12.63,4,6.31-4,12.62-4,6.32,4,12.63,4,6.31-4,12.62-4,6.31,4,12.62,4,6.32-4,12.63-4,6.31,4,12.63,4,6.31-4,12.62-4,6.32,4,12.64,4,6.31-4,12.63-4" transform="translate(-686 -97.13)"/><path class="cls-2" d="M722,383c6.31,0,6.31,4,12.62,4s6.31-4,12.62-4,6.31,4,12.62,4,6.32-4,12.63-4,6.31,4,12.62,4,6.31-4,12.62-4,6.32,4,12.63,4,6.31-4,12.62-4,6.32,4,12.63,4,6.31-4,12.62-4,6.31,4,12.62,4,6.32-4,12.63-4,6.31,4,12.63,4,6.31-4,12.62-4,6.32,4,12.64,4,6.31-4,12.63-4" transform="translate(-686 -97.13)"/><path class="cls-2" d="M722,392c6.31,0,6.31,4,12.62,4s6.31-4,12.62-4,6.31,4,12.62,4,6.32-4,12.63-4,6.31,4,12.62,4,6.31-4,12.62-4,6.32,4,12.63,4,6.31-4,12.62-4,6.32,4,12.63,4,6.31-4,12.62-4,6.31,4,12.62,4,6.32-4,12.63-4,6.31,4,12.63,4,6.31-4,12.62-4,6.32,4,12.64,4,6.31-4,12.63-4" transform="translate(-686 -97.13)"/><path class="cls-2" d="M722,401c6.31,0,6.31,4,12.62,4s6.31-4,12.62-4,6.31,4,12.62,4,6.32-4,12.63-4,6.31,4,12.62,4,6.31-4,12.62-4,6.32,4,12.63,4,6.31-4,12.62-4,6.32,4,12.63,4,6.31-4,12.62-4,6.31,4,12.62,4,6.32-4,12.63-4,6.31,4,12.63,4,6.31-4,12.62-4,6.32,4,12.64,4,6.31-4,12.63-4" transform="translate(-686 -97.13)"/><path class="cls-2" d="M722,410c6.31,0,6.31,4,12.62,4s6.31-4,12.62-4,6.31,4,12.62,4,6.32-4,12.63-4,6.31,4,12.62,4,6.31-4,12.62-4,6.32,4,12.63,4,6.31-4,12.62-4,6.32,4,12.63,4,6.31-4,12.62-4,6.31,4,12.62,4,6.32-4,12.63-4,6.31,4,12.63,4,6.31-4,12.62-4,6.32,4,12.64,4,6.31-4,12.63-4" transform="translate(-686 -97.13)"/><path class="cls-2" d="M722,419c6.31,0,6.31,4,12.62,4s6.31-4,12.62-4,6.31,4,12.62,4,6.32-4,12.63-4,6.31,4,12.62,4,6.31-4,12.62-4,6.32,4,12.63,4,6.31-4,12.62-4,6.32,4,12.63,4,6.31-4,12.62-4,6.31,4,12.62,4,6.32-4,12.63-4,6.31,4,12.63,4,6.31-4,12.62-4,6.32,4,12.64,4,6.31-4,12.63-4" transform="translate(-686 -97.13)"/><path class="cls-2" d="M722,428c6.31,0,6.31,4,12.62,4s6.31-4,12.62-4,6.31,4,12.62,4,6.32-4,12.63-4,6.31,4,12.62,4,6.31-4,12.62-4,6.32,4,12.63,4,6.31-4,12.62-4,6.32,4,12.63,4,6.31-4,12.62-4,6.31,4,12.62,4,6.32-4,12.63-4,6.31,4,12.63,4,6.31-4,12.62-4,6.32,4,12.64,4,6.31-4,12.63-4" transform="translate(-686 -97.13)"/><path class="cls-2" d="M722,437c6.31,0,6.31,4,12.62,4s6.31-4,12.62-4,6.31,4,12.62,4,6.32-4,12.63-4,6.31,4,12.62,4,6.31-4,12.62-4,6.32,4,12.63,4,6.31-4,12.62-4,6.32,4,12.63,4,6.31-4,12.62-4,6.31,4,12.62,4,6.32-4,12.63-4,6.31,4,12.63,4,6.31-4,12.62-4,6.32,4,12.64,4,6.31-4,12.63-4" transform="translate(-686 -97.13)"/><path class="cls-2" d="M722,446c6.31,0,6.31,4,12.62,4s6.31-4,12.62-4,6.31,4,12.62,4,6.32-4,12.63-4,6.31,4,12.62,4,6.31-4,12.62-4,6.32,4,12.63,4,6.31-4,12.62-4,6.32,4,12.63,4,6.31-4,12.62-4,6.31,4,12.62,4,6.32-4,12.63-4,6.31,4,12.63,4,6.31-4,12.62-4,6.32,4,12.64,4,6.31-4,12.63-4" transform="translate(-686 -97.13)"/><path class="cls-2" d="M722,455c6.31,0,6.31,4,12.62,4s6.31-4,12.62-4,6.31,4,12.62,4,6.32-4,12.63-4,6.31,4,12.62,4,6.31-4,12.62-4,6.32,4,12.63,4,6.31-4,12.62-4,6.32,4,12.63,4,6.31-4,12.62-4,6.31,4,12.62,4,6.32-4,12.63-4,6.31,4,12.63,4,6.31-4,12.62-4,6.32,4,12.64,4,6.31-4,12.63-4" transform="translate(-686 -97.13)"/><path class="cls-2" d="M722,464c6.31,0,6.31,4,12.62,4s6.31-4,12.62-4,6.31,4,12.62,4,6.32-4,12.63-4,6.31,4,12.62,4,6.31-4,12.62-4,6.32,4,12.63,4,6.31-4,12.62-4,6.32,4,12.63,4,6.31-4,12.62-4,6.31,4,12.62,4,6.32-4,12.63-4,6.31,4,12.63,4,6.31-4,12.62-4,6.32,4,12.64,4,6.31-4,12.63-4" transform="translate(-686 -97.13)"/><path class="cls-2" d="M722,473c6.31,0,6.31,4,12.62,4s6.31-4,12.62-4,6.31,4,12.62,4,6.32-4,12.63-4,6.31,4,12.62,4,6.31-4,12.62-4,6.32,4,12.63,4,6.31-4,12.62-4,6.32,4,12.63,4,6.31-4,12.62-4,6.31,4,12.62,4,6.32-4,12.63-4,6.31,4,12.63,4,6.31-4,12.62-4,6.32,4,12.64,4,6.31-4,12.63-4" transform="translate(-686 -97.13)"/><path class="cls-2" d="M765,302c5,0,5,4,9.93,4s5-4,9.94-4,5,4,9.93,4,5-4,9.94-4,5,4,9.94,4,5-4,9.93-4,5,4,9.94,4,5-4,9.94-4,5,4,9.93,4,5-4,9.94-4,5,4,9.93,4,5-4,9.94-4,5,4,9.94,4,5-4,9.94-4,5,4,9.95,4,5-4,9.94-4" transform="translate(-686 -97.13)"/><path class="cls-2" d="M722,311c6.31,0,6.31,4,12.62,4s6.31-4,12.62-4,6.31,4,12.62,4,6.32-4,12.63-4,6.31,4,12.62,4,6.31-4,12.62-4,6.32,4,12.63,4,6.31-4,12.62-4,6.32,4,12.63,4,6.31-4,12.62-4,6.31,4,12.62,4,6.32-4,12.63-4,6.31,4,12.63,4,6.31-4,12.62-4,6.32,4,12.64,4,6.31-4,12.63-4" transform="translate(-686 -97.13)"/><path class="cls-2" d="M722,320c6.31,0,6.31,4,12.62,4s6.31-4,12.62-4,6.31,4,12.62,4,6.32-4,12.63-4,6.31,4,12.62,4,6.31-4,12.62-4,6.32,4,12.63,4,6.31-4,12.62-4,6.32,4,12.63,4,6.31-4,12.62-4,6.31,4,12.62,4,6.32-4,12.63-4,6.31,4,12.63,4,6.31-4,12.62-4,6.32,4,12.64,4,6.31-4,12.63-4" transform="translate(-686 -97.13)"/><path class="cls-2" d="M722,329c6.31,0,6.31,4,12.62,4s6.31-4,12.62-4,6.31,4,12.62,4,6.32-4,12.63-4,6.31,4,12.62,4,6.31-4,12.62-4,6.32,4,12.63,4,6.31-4,12.62-4,6.32,4,12.63,4,6.31-4,12.62-4,6.31,4,12.62,4,6.32-4,12.63-4,6.31,4,12.63,4,6.31-4,12.62-4,6.32,4,12.64,4,6.31-4,12.63-4" transform="translate(-686 -97.13)"/><path d="M791.59,231.7h12.26l18.33,51.82H810.44L807,272.86H787.93l-3.51,10.66H773.1Zm-.71,32.23h13.27l-6.55-20.39Z" transform="translate(-686 -97.13)"/><path d="M862,233a12.85,12.85,0,0,1,4.85,3.62,16.24,16.24,0,0,1,2.61,4.36,14.55,14.55,0,0,1,1,5.45,15.57,15.57,0,0,1-1.87,7.26,10.42,10.42,0,0,1-6.15,5,9.68,9.68,0,0,1,5.08,4.09c1,1.77,1.49,4.47,1.49,8.11v3.48a26.08,26.08,0,0,0,.29,4.81,4.35,4.35,0,0,0,2,3v1.3h-12c-.33-1.15-.57-2.08-.71-2.78a25.27,25.27,0,0,1-.45-4.47l-.07-4.81q-.07-5-1.72-6.61t-6.17-1.65H839.6v20.32H829V231.7H853.8A22.59,22.59,0,0,1,862,233ZM839.6,240.7v13.92h11.65a12.27,12.27,0,0,0,5.21-.85c2-1,3.07-2.93,3.07-5.83q0-4.71-3-6.33a10.72,10.72,0,0,0-5-.91Z" transform="translate(-686 -97.13)"/><path d="M918.42,231.7v9.17h-15.5v42.65H892V240.87H876.44V231.7Z" transform="translate(-686 -97.13)"/><path d="M934.63,283.52H923.87V231.7h10.76Z" transform="translate(-686 -97.13)"/><path d="M949.7,237.11a21.32,21.32,0,0,1,15.93-6.4q12.95,0,18.92,8.58A18.69,18.69,0,0,1,988.1,249H977.27a14.77,14.77,0,0,0-2.65-5.63Q971.73,240,966,240a10.57,10.57,0,0,0-9.12,4.76q-3.34,4.77-3.34,13.48t3.52,13.06a11,11,0,0,0,9,4.35q5.57,0,8.49-3.73a16.33,16.33,0,0,0,2.69-6H988a23.26,23.26,0,0,1-7.11,13.78Q975.17,285,966.22,285q-11.06,0-17.39-7.17T942.5,258Q942.5,244.46,949.7,237.11Z" transform="translate(-686 -97.13)"/><path d="M996.75,231.7h10.83v42.5h25.87v9.32h-36.7Z" transform="translate(-686 -97.13)"/><path d="M1079.05,240.87h-27.42v11h25.17v9h-25.17V274.2h28.68v9.32H1041V231.7h38Z" transform="translate(-686 -97.13)"/><path d="M1096.56,267.52a10.46,10.46,0,0,0,2,5.31q2.7,3.19,9.23,3.2a19.64,19.64,0,0,0,6.35-.85c3.09-1.07,4.63-3.08,4.63-6a4.43,4.43,0,0,0-2.27-4,24.9,24.9,0,0,0-7.19-2.43l-5.61-1.23q-8.28-1.82-11.37-4-5.23-3.58-5.24-11.21a14.9,14.9,0,0,1,5.13-11.57q5.13-4.6,15-4.61a23.05,23.05,0,0,1,14.15,4.35q5.85,4.33,6.14,12.6h-10.41a7.42,7.42,0,0,0-4.18-6.65,14.41,14.41,0,0,0-6.45-1.3,12.34,12.34,0,0,0-6.85,1.69,5.36,5.36,0,0,0-2.56,4.71,4.44,4.44,0,0,0,2.53,4.15,31.11,31.11,0,0,0,6.88,2.15l9.09,2.14q6,1.41,9,3.76,4.64,3.66,4.63,10.58a14.87,14.87,0,0,1-5.49,11.8q-5.49,4.69-15.51,4.69-10.23,0-16.1-4.62t-5.86-12.71Z" transform="translate(-686 -97.13)"/><text x="-686" y="-97.13"/></svg>