<svg id="Layer_1" data-name="Layer 1" xmlns="http://www.w3.org/2000/svg" viewBox="0 0 461.5 583.7"><defs><style>.cls-1{fill:#69c;}.cls-2{fill:#cebe2f;}.cls-3{fill:#d9e021;}.cls-4{fill:#393941;}.cls-5{fill:#4d4d4d;}.cls-6{fill:#0043b8;}.cls-7{fill:#006ff4;}.cls-8{fill:#007ef4;}</style></defs><circle cx="198.55" cy="89.44" r="18.91"/><circle cx="323.59" cy="89.44" r="18.91"/><path d="M1050.49,269.47l-11.18-39.29c-6.36-22.36-25.49-36.81-48.74-36.81s-42.38,14.45-48.74,36.81l-11.19,39.29L925.45,268l11.18-39.29c7-24.74,28.22-40.73,53.94-40.73s46.9,16,53.94,40.73L1055.69,268Z" transform="translate(-729.5 -179.3)"/><polygon class="cls-1" points="461.5 583.7 0 583.7 51.5 56.7 410.5 56.7 461.5 583.7"/><polygon class="cls-2" points="195.5 583.7 51.5 583.7 77.5 56.7 195.5 56.7 195.5 583.7"/><circle cx="171.06" cy="88.7" r="18"/><circle cx="290.1" cy="88.7" r="18"/><path d="M1029.56,269.82l-12.43-43.65c-7.06-24.83-28.31-40.87-54.13-40.87s-47.07,16-54.13,40.87l-12.43,43.65-5.77-1.64,12.43-43.65c7.82-27.48,31.33-45.23,59.9-45.23s52.08,17.75,59.91,45.23l12.42,43.65Z" transform="translate(-729.5 -179.3)"/><path class="cls-3" d="M963.25,455.41a91.53,91.53,0,0,1,35.12-79.31,93.2,93.2,0,0,0,14.21,91.59c30.2,37.56,83.41,43.91,120.79,15.19-12.07,31.33-40.72,54.4-75.6,56.9C1009.16,543.26,966.84,505.48,963.25,455.41Z" transform="translate(-729.5 -179.3)"/><path class="cls-4" d="M1069.58,501.22c6.9,2.44,14.38,4.74,22.32,7.06-21.5,5.86-45.13,18.33-66,20h-.06a43.57,43.57,0,0,1-18.36-2.09,34.77,34.77,0,0,1-5.9-2.78c-.65-.38-1.28-.78-1.91-1.21s-1.25-.88-1.86-1.35l0,0c-.55-.43-1.11-.88-1.65-1.36h0a42.84,42.84,0,0,1-4-4.05,96.56,96.56,0,0,1,9.36-136.17c25.43-22.17,59.12-15.36,89.34-6.59l.36.1.73.21c-32.87,9-59.88,21.62-68.36,57.13C1013.5,472.18,1033.86,488.58,1069.58,501.22Z" transform="translate(-729.5 -179.3)"/><path class="cls-4" d="M1125.86,442.85c0,17.21-15.41,31.16-34.43,31.16a36.9,36.9,0,0,1-18.21-4.71c-.55-.31-1.08-.62-1.61-1-8.84-5.63-14.62-14.95-14.62-25.49,0-17.21,15.42-31.16,34.44-31.16.56,0,1.13,0,1.69,0a35.48,35.48,0,0,1,25.9,12.48A29.11,29.11,0,0,1,1125.86,442.85Z" transform="translate(-729.5 -179.3)"/><path class="cls-5" d="M1125.86,442.85c0,17.21-15.41,31.16-34.43,31.16a36.9,36.9,0,0,1-18.21-4.71,33.38,33.38,0,0,1-9.4-7.82c.53.34,1.06.66,1.61,1a37,37,0,0,0,18.21,4.71c19,0,34.43-14,34.43-31.16a29.11,29.11,0,0,0-6.84-18.64C1120.08,423,1125.86,432.31,1125.86,442.85Z" transform="translate(-729.5 -179.3)"/><path class="cls-6" d="M1123.75,374.65q-4-.88-8-1.43a97.2,97.2,0,0,0-24-.28c-30.22-8.76-63.91-15.57-89.34,6.59A96.44,96.44,0,0,0,993,515.6a43,43,0,0,0,4,4.06A96.08,96.08,0,0,1,967,479.71q-.48-1.18-.93-2.4c-.28-.77-.56-1.55-.83-2.34s-.51-1.52-.75-2.3q-1.08-3.46-1.92-7.07a96.46,96.46,0,0,1,161.2-91Z" transform="translate(-729.5 -179.3)"/><path class="cls-7" d="M1151.54,519c-5.76-.45-15.79-2.65-26.56-1.71-10.77.61-22.28,4.38-31,8.09-13,5.7-23.42,12.81-35.49,18.59-4.92,1.79-18.61,10.33-32.65,11.92-14,2.29-28.47-2.37-34.85-10.74,7.07,4,24,3,41.23-5.67,17.19-7.75,34.57-23.22,42.45-27.07,14.14-8.74,29.06-14.06,43.45-11.11C1127.45,502.86,1141.2,509.63,1151.54,519Z" transform="translate(-729.5 -179.3)"/><path class="cls-8" d="M1118.16,494.72c-6.83-2.43-24.43-2-35.1,5.43-8,4.42-14.3,9.7-21.7,14.21-3,1.41-11.37,7.91-20,9.49-8.62,2.08-17.51-.76-21.59-6.42,4.29,2.78,14.53,2.17,24.9-4,10.37-5.51,20.86-16.58,25.66-19.51,8.6-6.5,17.82-11.12,26.84-10C1103,484.38,1111.68,488.35,1118.16,494.72Z" transform="translate(-729.5 -179.3)"/><path class="cls-8" d="M1144.16,531.72c-6.83-2.43-24.43-2-35.1,5.43-8,4.42-14.3,9.7-21.7,14.21-3,1.41-11.37,7.91-20,9.49-8.62,2.08-17.51-.76-21.59-6.42,4.29,2.78,14.53,2.17,24.9-4,10.37-5.51,20.86-16.58,25.66-19.51,8.6-6.5,17.82-11.12,26.84-10C1129,521.38,1137.68,525.35,1144.16,531.72Z" transform="translate(-729.5 -179.3)"/></svg>