<svg id="Layer_1" data-name="Layer 1" xmlns="http://www.w3.org/2000/svg" viewBox="0 0 872.75 179.48"><defs><style>.cls-1{fill:#2633b4;}.cls-2{fill:#f6d735;}</style></defs><path class="cls-1" d="M520.74,398.92v13.47h23v17.75h-23v31.65H499.79V381.17h46.29v17.75Z" transform="translate(-499.79 -373.04)"/><path class="cls-1" d="M613.66,435.59v2H572.71q0,6,3.1,9.14t9.08,3.16a11.62,11.62,0,0,0,5.4-1.18,9.8,9.8,0,0,0,3.91-3.85h18.71q-2.35,9.78-10.43,14.25A35.6,35.6,0,0,1,585,463.6q-13.57,0-22.67-7.43t-9.08-21.65q0-13.68,8.5-21.49t21.86-7.8q14.32,0,22.19,8.23t7.86,22.24Zm-18.07-9.19a9.83,9.83,0,0,0-3.91-6.21,11.63,11.63,0,0,0-7.11-2.35,13,13,0,0,0-7.48,2.17A9.63,9.63,0,0,0,573,426.4Z" transform="translate(-499.79 -373.04)"/><path class="cls-1" d="M682.51,461.79H663.05v-6.1h-.21a14.46,14.46,0,0,1-6.42,5.72A22.75,22.75,0,0,1,648,463.5a3.53,3.53,0,0,1-.85.1h-.86q-12.18,0-19.94-8.71a31.07,31.07,0,0,1-.1-40.95q7.63-8.71,19.83-8.71h1.07a5.54,5.54,0,0,1,1.07.1,25.06,25.06,0,0,1,8.18,2.09,17.89,17.89,0,0,1,6.68,5v-5.45h19.46Zm-40.52-36a12.6,12.6,0,0,0-3.32,8.71,12.32,12.32,0,0,0,3.32,8.77q3.32,3.52,9.19,3.53t9.25-3.55a12.51,12.51,0,0,0,3.26-8.8,12.82,12.82,0,0,0-3.26-8.75q-3.25-3.71-9.25-3.71T642,425.81Z" transform="translate(-499.79 -373.04)"/><path class="cls-1" d="M716.72,461.79H697.26V423H691v-16h6.31V390.47h19.46v16.47h11v16h-11Z" transform="translate(-499.79 -373.04)"/><path class="cls-1" d="M753.07,406.94v29.29a17.6,17.6,0,0,0,1.87,8.66q1.88,3.32,7.86,3.32t7.86-3.32a17.25,17.25,0,0,0,1.87-8.55v-29.4H792v33q0,13.69-8.39,18.66t-20.8,5q-12.3,0-20.74-5t-8.45-18.55V406.94Z" transform="translate(-499.79 -373.04)"/><path class="cls-1" d="M823.85,415.92h.22a17.57,17.57,0,0,1,7.43-7.27,22.5,22.5,0,0,1,10.31-2.36l3.75-.1V424.9a3.18,3.18,0,0,1-.81-.32,3.11,3.11,0,0,0-.8-.32,13.71,13.71,0,0,0-3.2-.86,26.44,26.44,0,0,0-3.43-.21q-8.12,0-10.79,4.76a23.74,23.74,0,0,0-2.68,11.81v22H804.39V406.94h19.46Z" transform="translate(-499.79 -373.04)"/><path class="cls-1" d="M909.17,435.59v2H868.22q0,6,3.1,9.14t9.09,3.16a11.62,11.62,0,0,0,5.4-1.18,9.84,9.84,0,0,0,3.9-3.85h18.71q-2.35,9.78-10.42,14.25a35.6,35.6,0,0,1-17.48,4.46q-13.59,0-22.67-7.43t-9.09-21.65q0-13.68,8.5-21.49t21.87-7.8q14.32,0,22.18,8.23t7.86,22.24ZM891.1,426.4a9.85,9.85,0,0,0-3.9-6.21,11.63,11.63,0,0,0-7.11-2.35,13,13,0,0,0-7.48,2.17,9.64,9.64,0,0,0-4.07,6.39Z" transform="translate(-499.79 -373.04)"/><path class="cls-1" d="M959.31,455.69h-.21a14.49,14.49,0,0,1-6.41,5.72,22.8,22.8,0,0,1-8.45,2.09,3.61,3.61,0,0,1-.86.1h-.85q-12.19,0-19.94-8.71a31.09,31.09,0,0,1-.11-40.95q7.65-8.71,19.83-8.71h1.07a5.46,5.46,0,0,1,1.07.1,25,25,0,0,1,8.18,2.09,17.81,17.81,0,0,1,6.68,5V373h19.46v88.75H959.31Zm-21.06-29.88a12.6,12.6,0,0,0-3.31,8.71,12.31,12.31,0,0,0,3.31,8.77q3.32,3.52,9.2,3.53t9.24-3.55a12.47,12.47,0,0,0,3.27-8.8,12.78,12.78,0,0,0-3.27-8.75q-3.26-3.71-9.24-3.71T938.25,425.81Z" transform="translate(-499.79 -373.04)"/><path class="cls-1" d="M1048.59,447.78l-5.56,14h-22.24l31-80.62h22.88L1105,461.79H1082.7l-5.24-14Zm14.65-41.7H1063l-8.66,25.66h17.43Z" transform="translate(-499.79 -373.04)"/><path class="cls-1" d="M1130.59,415.92h.22a17.57,17.57,0,0,1,7.43-7.27,22.51,22.51,0,0,1,10.32-2.36l3.74-.1V424.9a3.11,3.11,0,0,1-.8-.32,3.18,3.18,0,0,0-.81-.32,13.58,13.58,0,0,0-3.2-.86,26.39,26.39,0,0,0-3.42-.21q-8.13,0-10.8,4.76a23.74,23.74,0,0,0-2.68,11.81v22h-19.46V406.94h19.46Z" transform="translate(-499.79 -373.04)"/><path class="cls-1" d="M1182.77,461.79h-19.46V423H1157v-16h6.31V390.47h19.46v16.47h11v16h-11Z" transform="translate(-499.79 -373.04)"/><path class="cls-1" d="M1217.41,378.28a10.89,10.89,0,1,1-18.61,7.7,10.65,10.65,0,0,1,3.21-7.77,10.46,10.46,0,0,1,7.7-3.24A10.88,10.88,0,0,1,1217.41,378.28Zm2,83.51H1200V406.94h19.46Z" transform="translate(-499.79 -373.04)"/><path class="cls-1" d="M1271.83,408.33v16.46a27.37,27.37,0,0,0-4.71-2.62,13.15,13.15,0,0,0-5.34-1.12,13,13,0,0,0-9.46,3.85,12.8,12.8,0,0,0-3.91,9.51,13,13,0,0,0,3.85,9.68,13.44,13.44,0,0,0,9.84,3.8,10.94,10.94,0,0,0,1.12-.06,9.43,9.43,0,0,0,1.12-.16,15,15,0,0,0,4-1.23,12.92,12.92,0,0,0,3.48-2.3V460.5a28.25,28.25,0,0,1-6.68,2.35,33.14,33.14,0,0,1-7,.75,30.08,30.08,0,0,1-21-8.07,26.53,26.53,0,0,1-8.82-20.47q0-13.26,8.88-21.55t21.81-8.28a27.57,27.57,0,0,1,6.68.8,24.72,24.72,0,0,1,6.15,2.4Z" transform="translate(-499.79 -373.04)"/><path class="cls-1" d="M1303.37,461.79h-19.46V373h19.46Z" transform="translate(-499.79 -373.04)"/><path class="cls-1" d="M1372.54,435.59v2h-41q0,6,3.1,9.14t9.09,3.16a11.62,11.62,0,0,0,5.4-1.18,9.84,9.84,0,0,0,3.9-3.85h18.71q-2.34,9.78-10.42,14.25a35.6,35.6,0,0,1-17.48,4.46q-13.59,0-22.67-7.43t-9.09-21.65q0-13.68,8.5-21.49t21.87-7.8q14.32,0,22.18,8.23t7.86,22.24Zm-18.07-9.19a9.85,9.85,0,0,0-3.9-6.21,11.63,11.63,0,0,0-7.11-2.35A13,13,0,0,0,1336,420a9.64,9.64,0,0,0-4.07,6.39Z" transform="translate(-499.79 -373.04)"/><path class="cls-1" d="M1123.88,551.73c7.18,5.14-12.2-15.94-45.56-27.43-33.36-13-80.69-16.38-129.43-10.27s-96.74,6.71-130.81-2.22c-34.07-7.33-54.2-24.22-47.21-16.34,13.33,10.81,32.7,24.75,60.94,32.65,28.23,8.22,65.32,10.41,114.06,5.13s87.78-6,117.36-.89C1092.82,537,1113,547.41,1123.88,551.73Z" transform="translate(-499.79 -373.04)"/><path class="cls-2" d="M877.82,470.26c-5.92-3.94,9.91,13.6,37.2,23.28,27.28,10.89,66,13.91,106,8.82s79.33-6,107.3.84c28,5.55,44.52,18.91,38.83,12.28-21.71-20.08-63.3-42.64-143.19-32.19-39.94,4.45-72,5.36-96.26,1.55C903.39,481.48,886.84,473.4,877.82,470.26Z" transform="translate(-499.79 -373.04)"/></svg>