<svg id="Layer_1" data-name="Layer 1" xmlns="http://www.w3.org/2000/svg" viewBox="0 0 757.07 159.52"><defs><style>.cls-1{fill:#fff;}.cls-2{fill:#f6d735;}</style></defs><path class="cls-1" d="M624.09,178.69c7.18,5.14-12.2-15.94-45.56-27.43-33.36-13-80.69-16.38-129.43-10.27s-96.74,6.71-130.81-2.22c-34.07-7.33-54.2-24.21-47.21-16.34,13.32,10.81,32.7,24.75,60.94,32.65,28.23,8.22,65.32,10.41,114.06,5.13s87.78-6,117.36-.89C593,164,613.21,174.37,624.09,178.69Z" transform="translate(-56.15 -19.96)"/><path class="cls-2" d="M378,97.22c-5.92-3.94,9.91,13.6,37.2,23.28,27.28,10.89,66,13.91,106,8.82s79.33-6,107.3.84c28,5.55,44.52,18.91,38.83,12.28-21.71-20.08-63.3-42.64-143.19-32.19-39.94,4.45-72,5.36-96.26,1.55C403.6,108.44,387.05,100.36,378,97.22Z" transform="translate(-56.15 -19.96)"/><path class="cls-1" d="M73,40.73V51.55H91.43V65.79H73V91.2H56.15V26.48H93.32V40.73Z" transform="translate(-56.15 -19.96)"/><path class="cls-1" d="M147.56,70.17V71.8H114.69c0,3.21.83,5.65,2.49,7.34s4.09,2.53,7.29,2.53a9.37,9.37,0,0,0,4.33-.94,7.93,7.93,0,0,0,3.14-3.09h15a16.9,16.9,0,0,1-8.37,11.43,28.53,28.53,0,0,1-14,3.59q-10.9,0-18.2-6T99.07,69.31q0-11,6.82-17.25t17.55-6.26q11.51,0,17.81,6.6t6.31,17.86Zm-14.51-7.38a7.88,7.88,0,0,0-3.13-5,9.31,9.31,0,0,0-5.71-1.89,10.43,10.43,0,0,0-6,1.74,7.76,7.76,0,0,0-3.27,5.13Z" transform="translate(-56.15 -19.96)"/><path class="cls-1" d="M202.83,91.2H187.21V86.31H187a11.62,11.62,0,0,1-5.15,4.59,18.18,18.18,0,0,1-6.78,1.67,2.72,2.72,0,0,1-.69.09h-.69a20.42,20.42,0,0,1-16-7,24.93,24.93,0,0,1-.09-32.87,20.2,20.2,0,0,1,15.92-7h.86a5,5,0,0,1,.86.08,19.79,19.79,0,0,1,6.56,1.68,14.33,14.33,0,0,1,5.37,4V47.17h15.62ZM170.3,62.32a10.12,10.12,0,0,0-2.66,7,9.9,9.9,0,0,0,2.66,7,9.61,9.61,0,0,0,7.38,2.83c3.21,0,5.68-1,7.43-2.84a10.06,10.06,0,0,0,2.61-7.07,10.29,10.29,0,0,0-2.61-7,9.36,9.36,0,0,0-7.43-3A9.65,9.65,0,0,0,170.3,62.32Z" transform="translate(-56.15 -19.96)"/><path class="cls-1" d="M230.29,91.2H214.67V60h-5.06V47.17h5.06V34h15.62V47.17h8.84V60h-8.84Z" transform="translate(-56.15 -19.96)"/><path class="cls-1" d="M259.47,47.17V70.69a14,14,0,0,0,1.51,7q1.5,2.65,6.3,2.66t6.31-2.66a13.88,13.88,0,0,0,1.5-6.87V47.17h15.63V73.69q0,11-6.74,15t-16.7,4q-9.87,0-16.65-4t-6.78-14.89V47.17Z" transform="translate(-56.15 -19.96)"/><path class="cls-1" d="M316.29,54.38h.17a14.16,14.16,0,0,1,6-5.84,18.07,18.07,0,0,1,8.28-1.89l3-.08v15a2.46,2.46,0,0,1-.65-.26,2.77,2.77,0,0,0-.64-.26,10.71,10.71,0,0,0-2.58-.68,19.81,19.81,0,0,0-2.74-.18q-6.53,0-8.67,3.82a19.17,19.17,0,0,0-2.15,9.49V91.2H300.67v-44h15.62Z" transform="translate(-56.15 -19.96)"/><path class="cls-1" d="M384.78,70.17V71.8H351.91c0,3.21.83,5.65,2.49,7.34s4.09,2.53,7.29,2.53a9.41,9.41,0,0,0,4.34-.94,7.91,7.91,0,0,0,3.13-3.09h15a16.9,16.9,0,0,1-8.37,11.43,28.53,28.53,0,0,1-14,3.59q-10.9,0-18.2-6t-7.29-17.38q0-11,6.82-17.25t17.55-6.26q11.5,0,17.81,6.6t6.31,17.86Zm-14.5-7.38a7.9,7.9,0,0,0-3.14-5,9.28,9.28,0,0,0-5.7-1.89,10.48,10.48,0,0,0-6,1.74,7.72,7.72,0,0,0-3.26,5.13Z" transform="translate(-56.15 -19.96)"/><path class="cls-1" d="M425,86.31h-.17a11.57,11.57,0,0,1-5.15,4.59,18.08,18.08,0,0,1-6.78,1.67,2.71,2.71,0,0,1-.68.09h-.69a20.44,20.44,0,0,1-16-7,23.91,23.91,0,0,1-6.22-16.43,24.1,24.1,0,0,1,6.14-16.44,20.18,20.18,0,0,1,15.92-7h.86a4.89,4.89,0,0,1,.85.08,19.91,19.91,0,0,1,6.57,1.68,14.37,14.37,0,0,1,5.36,4V20h15.62V91.2H425Zm-16.9-24a10.08,10.08,0,0,0-2.67,7,9.86,9.86,0,0,0,2.67,7,11.08,11.08,0,0,0,14.8,0,10,10,0,0,0,2.62-7.07,10.25,10.25,0,0,0-2.62-7,9.35,9.35,0,0,0-7.42-3A9.65,9.65,0,0,0,408.13,62.32Z" transform="translate(-56.15 -19.96)"/><path class="cls-1" d="M480.22,26.48H506q10.47.09,17,5.15t6.52,16.23q0,11.42-6,16.69t-16.95,5.28H497V91.2H480.22ZM497,56.18h2.83a30.42,30.42,0,0,0,8.33-.9c2.52-.66,3.77-3,3.77-6.91s-1.2-6.52-3.6-7.24a29.77,29.77,0,0,0-8.5-1.08H497Z" transform="translate(-56.15 -19.96)"/><path class="cls-1" d="M552.23,54.38h.17a14.16,14.16,0,0,1,6-5.84,18,18,0,0,1,8.28-1.89l3-.08v15a2.39,2.39,0,0,1-.64-.26,2.85,2.85,0,0,0-.65-.26,10.51,10.51,0,0,0-2.57-.68,20,20,0,0,0-2.75-.18q-6.52,0-8.67,3.82a19.17,19.17,0,0,0-2.14,9.49V91.2H536.61v-44h15.62Z" transform="translate(-56.15 -19.96)"/><path class="cls-1" d="M597.2,45.71a30,30,0,0,1,18.58,6.22q7.94,6.14,7.94,17.38t-7.94,17.25a31.39,31.39,0,0,1-37.12,0q-8-6.06-8-17.3t7.94-17.38A29.51,29.51,0,0,1,597.2,45.8Zm-7.38,16.61a10.12,10.12,0,0,0-2.66,7,9.9,9.9,0,0,0,2.66,7,9.61,9.61,0,0,0,7.38,2.83q4.81,0,7.42-2.84a10,10,0,0,0,2.62-7.07,10.25,10.25,0,0,0-2.62-7,9.32,9.32,0,0,0-7.42-3A9.65,9.65,0,0,0,589.82,62.32Z" transform="translate(-56.15 -19.96)"/><path class="cls-1" d="M663.89,86.31h-.17a11.62,11.62,0,0,1-5.15,4.59,18.18,18.18,0,0,1-6.78,1.67,2.72,2.72,0,0,1-.69.09h-.69a20.41,20.41,0,0,1-16-7,23.91,23.91,0,0,1-6.22-16.43,24.14,24.14,0,0,1,6.13-16.44,20.2,20.2,0,0,1,15.92-7h.86a5,5,0,0,1,.86.08,19.91,19.91,0,0,1,6.57,1.68,14.37,14.37,0,0,1,5.36,4V20h15.62V91.2H663.89ZM647,62.32a10.12,10.12,0,0,0-2.66,7,9.9,9.9,0,0,0,2.66,7,9.61,9.61,0,0,0,7.38,2.83c3.21,0,5.68-1,7.43-2.84a10.06,10.06,0,0,0,2.61-7.07,10.29,10.29,0,0,0-2.61-7,9.36,9.36,0,0,0-7.43-3A9.65,9.65,0,0,0,647,62.32Z" transform="translate(-56.15 -19.96)"/><path class="cls-1" d="M704.66,47.17V70.69a14.07,14.07,0,0,0,1.5,7q1.5,2.65,6.31,2.66t6.31-2.66a13.88,13.88,0,0,0,1.5-6.87V47.17H735.9V73.69q0,11-6.74,15t-16.69,4q-9.87,0-16.65-4T689,73.78V47.17Z" transform="translate(-56.15 -19.96)"/><path class="cls-1" d="M777.61,48.28V61.5a21.8,21.8,0,0,0-3.78-2.1,10.58,10.58,0,0,0-4.29-.9A10.89,10.89,0,0,0,761.9,77,10.74,10.74,0,0,0,769.8,80c.28,0,.58,0,.9,0a8.47,8.47,0,0,0,.9-.13,12.08,12.08,0,0,0,3.22-1A10.4,10.4,0,0,0,777.61,77V90.17a22.66,22.66,0,0,1-5.36,1.89,26.8,26.8,0,0,1-5.63.6,24.12,24.12,0,0,1-16.86-6.48,21.31,21.31,0,0,1-7.08-16.44q0-10.63,7.12-17.29a24.68,24.68,0,0,1,17.51-6.65,22.28,22.28,0,0,1,5.36.64,19.9,19.9,0,0,1,4.94,1.93Z" transform="translate(-56.15 -19.96)"/><path class="cls-1" d="M804.39,91.2H788.77V60H783.7V47.17h5.07V34h15.62V47.17h8.84V60h-8.84Z" transform="translate(-56.15 -19.96)"/></svg>