<svg id="Layer_1" data-name="Layer 1" xmlns="http://www.w3.org/2000/svg" viewBox="0 0 1697.18 81.88"><defs><style>.cls-1{fill:#f6d735;}.cls-2{fill:#2633b4;}</style></defs><path class="cls-1" d="M0,0H1697.18V49.05H0Z"/><path class="cls-1" d="M0,81.88l40.43-1.65c40.42-1.64,121-4.92,202.36-5.46,80.5-.59,161.47,1.67,241.61,2.18,81.33.51,162.65-.51,242.79-2.18,81-1.61,161.47-3.87,242.8-4.38,80.61-.52,161.47.51,242.79,2.18,80.26,1.61,161.46,3.87,241.61,4.38,81.2.51,161.47-.51,202.72-1.1l40.07-.54V49.05H0Z"/><path class="cls-2" d="M0,0H1672.84V39.1H0Z"/><path class="cls-2" d="M0,58.14,39.85,56.8c39.84-1.31,119.3-3.92,199.46-4.36,79.34-.46,159.15,1.33,238.15,1.74,80.15.41,160.31-.41,239.31-1.74,79.8-1.28,159.15-3.08,239.3-3.49,79.46-.41,159.16.41,239.31,1.74,79.11,1.29,159.16,3.08,238.15,3.49,80,.41,159.15-.41,199.81-.87l39.5-.43V32H0Z"/></svg>